<?xml version="1.0" encoding="UTF-8"?>
<!--Generator: Apple Native CoreSVG 341-->
<!DOCTYPE svg
PUBLIC "-//W3C//DTD SVG 1.1//EN"
       "http://www.w3.org/Graphics/SVG/1.1/DTD/svg11.dtd">
<svg version="1.1" xmlns="http://www.w3.org/2000/svg" xmlns:xlink="http://www.w3.org/1999/xlink" viewBox="0 0 18.4341 14.94">
 <g>
  <rect height="14.94" opacity="0" width="18.4341" x="0" y="0"/>
  <path d="M2.6469 14.7441L15.5483 14.7441C17.1082 14.7441 18.0279 13.8297 18.0279 12.1185L18.0279 4.07515C18.0279 2.36392 17.1029 1.44956 15.381 1.44956L8.00958 1.44956C7.43113 1.44956 7.07852 1.31711 6.62082 0.948875L6.19643 0.607937C5.62366 0.148078 5.21529 0 4.36235 0L2.44443 0C0.920732 0 0 0.902982 0 2.59503L0 12.1185C0 13.835 0.919685 14.7441 2.6469 14.7441ZM1.55214 4.54354L1.55214 4.05387C1.55214 3.54004 1.91043 3.21548 2.51625 3.21548L15.4903 3.21548C16.0883 3.21548 16.4544 3.54004 16.4544 4.05387L16.4544 4.54354Z" fill="white" fill-opacity="0.85"/>
 </g>
</svg>
